<svg width="87" height="76" viewBox="0 0 87 76" fill="none" xmlns="http://www.w3.org/2000/svg">
<path d="M24.2743 29.6549C21.2919 29.6549 18.8825 32.0644 18.8825 35.0467C18.8825 38.029 21.2919 40.4385 24.2743 40.4385C27.2566 40.4385 29.6661 38.029 29.6661 35.0467C29.6661 32.0644 27.2566 29.6549 24.2743 29.6549ZM43.1456 29.6549C40.1633 29.6549 37.7538 32.0644 37.7538 35.0467C37.7538 38.029 40.1633 40.4385 43.1456 40.4385C46.1279 40.4385 48.5374 38.029 48.5374 35.0467C48.5374 32.0644 46.1279 29.6549 43.1456 29.6549ZM62.0169 29.6549C59.0346 29.6549 56.6251 32.0644 56.6251 35.0467C56.6251 38.029 59.0346 40.4385 62.0169 40.4385C64.9992 40.4385 67.4087 38.029 67.4087 35.0467C67.4087 32.0644 64.9992 29.6549 62.0169 29.6549ZM43.1456 0C19.3206 0 0.0111826 15.6868 0.0111826 35.0467C0.0111826 43.067 3.36421 50.4133 8.9245 56.3275C6.41395 62.9661 1.19064 68.5938 1.10639 68.6612C-0.00566675 69.8407 -0.308956 71.5593 0.331321 73.0421C0.971597 74.5248 2.43749 75.4852 4.05503 75.4852C14.4174 75.4852 22.5894 71.1549 27.4925 67.684C32.362 69.2173 37.619 70.0934 43.1456 70.0934C66.9706 70.0934 86.28 54.4066 86.28 35.0467C86.28 15.6868 66.9706 0 43.1456 0ZM43.1456 62.0057C38.6468 62.0057 34.1986 61.3149 29.9357 59.9669L26.1109 58.7538L22.8252 61.079C20.4158 62.7808 17.1133 64.6848 13.1368 65.9653C14.3669 63.9265 15.5632 61.635 16.4899 59.1919L18.2759 54.4572L14.8049 50.784C11.7552 47.5321 8.09888 42.1571 8.09888 35.0467C8.09888 20.1856 23.8194 8.0877 43.1456 8.0877C62.4718 8.0877 78.1923 20.1856 78.1923 35.0467C78.1923 49.9079 62.4718 62.0057 43.1456 62.0057Z" fill="#4F359B"/>
</svg>
